HIERARCHY
ROOT Hips
{
  OFFSET 3.13124 94.3669 -3.18751
  CHANNELS  6 Xposition Yposition Zposition Zrotation Xrotation Yrotation
  JOINT LeftUpLeg
  {
    OFFSET 8.64259 1.95398 -2.38835
    CHANNELS 3 Zrotation Xrotation Yrotation
    JOINT LeftLeg
    {
      OFFSET 43.7702 0 0
      CHANNELS 3 Zrotation Xrotation Yrotation
      JOINT LeftFoot
      {
        OFFSET 40.6238 0 0
        CHANNELS 3 Zrotation Xrotation Yrotation
        JOINT LeftToeBase
        {
          OFFSET 12.7242 0 0
          CHANNELS 3 Zrotation Xrotation Yrotation
          End Site
          {
            OFFSET 0 0 0
          }
        }
      }
    }
  }
  JOINT RightUpLeg
  {
    OFFSET -8.2249 1.95398 -2.59336
    CHANNELS 3 Zrotation Xrotation Yrotation
    JOINT RightLeg
    {
      OFFSET 43.5653 0 0
      CHANNELS 3 Zrotation Xrotation Yrotation
      JOINT RightFoot
      {
        OFFSET 40.6238 0 0
        CHANNELS 3 Zrotation Xrotation Yrotation
        JOINT RightToeBase
        {
          OFFSET 12.7242 0 0
          CHANNELS 3 Zrotation Xrotation Yrotation
          End Site
          {
            OFFSET 0 0 0
          }
        }
      }
    }
  }
  JOINT Spine
  {
    OFFSET 0.165834 0.87714 6.61349
    CHANNELS 3 Zrotation Xrotation Yrotation
    JOINT Spine1
    {
      OFFSET 7.38962 1.71661e-005 0
      CHANNELS 3 Zrotation Xrotation Yrotation
      JOINT Spine2
      {
        OFFSET 11.9445 1.14441e-005 0
        CHANNELS 3 Zrotation Xrotation Yrotation
        JOINT Spine3
        {
          OFFSET 14.7254 4.19617e-005 0
          CHANNELS 3 Zrotation Xrotation Yrotation
          JOINT Spine4
          {
            OFFSET 10.9679 0 0
            CHANNELS 3 Zrotation Xrotation Yrotation
            JOINT RightShoulder
            {
              OFFSET 2.46616 -1.6653 3.69651
              CHANNELS 3 Zrotation Xrotation Yrotation
              JOINT RightArm
              {
                OFFSET 13.0012 0 0
                CHANNELS 3 Zrotation Xrotation Yrotation
                JOINT RightForeArm
                {
                  OFFSET 28.7848 1.52588e-005 0
                  CHANNELS 3 Zrotation Xrotation Yrotation
                  JOINT RightHand
                  {
                    OFFSET 26.5688 1.52588e-005 0
                    CHANNELS 3 Zrotation Xrotation Yrotation
                    End Site
                    {
                      OFFSET 0 0 0
                    }
                  }
                }
              }
            }
            JOINT LeftShoulder
            {
              OFFSET 2.38034 -1.29275 -3.75231
              CHANNELS 3 Zrotation Xrotation Yrotation
              JOINT LeftArm
              {
                OFFSET 16.3182 6.10352e-005 0
                CHANNELS 3 Zrotation Xrotation Yrotation
                JOINT LeftForeArm
                {
                  OFFSET 27.0901 0 0
                  CHANNELS 3 Zrotation Xrotation Yrotation
                  JOINT LeftHand
                  {
                    OFFSET 24.5451 1.52588e-005 0
                    CHANNELS 3 Zrotation Xrotation Yrotation
                    End Site
                    {
                      OFFSET 0 0 0
                    }
                  }
                }
              }
            }
            JOINT Neck
            {
              OFFSET 5.0226 -0.0266342 0
              CHANNELS 3 Zrotation Xrotation Yrotation
              JOINT Head
              {
                OFFSET 6.69363 2.86102e-005 0
                CHANNELS 3 Zrotation Xrotation Yrotation
                End Site
                {
                  OFFSET 0 0 0
                }
              }
            }
          }
        }
      }
    }
  }
}
MOTION
Frames:	13
Frame Time:	0.0333333
61.6565 90.9196 -77.0257 97.4216 -65.3998 95.9415 173.268 6.10835 74.7117 -25.5168 -65.791 -9.42839 71.5035 5.60293 3.2564 28.7808 4.85829e-006 2.84539e-006 178.486 30.3453 81.2268 -4.94589 28.6698 1.93388 -1.69952 1.89474 6.55046 28.7808 1.35224e-005 2.31008e-005 -0.528761 6.1538 -90.2212 14.5551 -0.298663 -3.76928 2.87875 -0.464157 -3.75251 -19.6139 0.847156 -3.68509 0.398711 0.84715 -3.6851 100.68 -44.4048 -84.49 -0.866875 25.9671 29.3538 -2.75871 0.596537 -39.0242 32.1693 3.52267 6.96408 -75.0324 20.1701 121.105 10.3422 -40.6288 -52.0672 1.54297 -56.8976 -2.39945 -18.2994 1.03294 -12.388 15.5419 -24.5482 -5.53769 -10.7198 -22.4452 -0.675944 
61.5795 90.9385 -77.2053 96.7455 -64.6529 95.2666 173.296 6.18627 74.7661 -24.8699 -64.7696 -8.95097 71.5228 5.4333 3.16362 28.7808 4.85829e-006 2.84539e-006 178.4 30.4811 80.9631 -4.94231 28.6263 1.92911 -1.70735 2.01822 6.7881 28.7808 1.35224e-005 2.31008e-005 -0.592952 6.09814 -90.2162 14.6614 -0.419229 -3.71935 2.98525 -0.582427 -3.69735 -19.5081 0.717164 -3.67363 0.504562 0.717158 -3.67366 101.53 -43.5745 -83.0831 -2.14221 26.0536 29.0195 -3.90848 -1.00921 -37.2921 34.1524 3.40315 5.83562 -75.1499 20.8733 121.649 10.7934 -40.929 -51.8987 1.53749 -57.502 -2.39033 -18.2818 1.08628 -12.7882 16.5545 -23.9869 -5.01813 -10.04 -22.0037 0.0786647 
61.5134 90.9874 -77.3645 96.3402 -63.8728 94.8303 173.296 6.21657 74.7699 -24.5004 -64.0837 -8.651 71.3908 5.33421 3.11283 28.7808 4.85829e-006 2.84539e-006 178.302 30.4567 80.6899 -4.94006 28.597 1.92621 -1.73858 1.91258 6.59355 28.7808 1.35224e-005 2.31008e-005 -0.62232 6.06507 -90.2254 14.7242 -0.495925 -3.70653 3.04818 -0.658439 -3.68117 -19.4452 0.640171 -3.68466 0.567421 0.64017 -3.68467 102.459 -42.7453 -81.5105 -2.51964 26.0792 28.4115 -3.9954 -1.16819 -36.4 33.7875 3.42021 6.03317 -75.0726 20.6968 121.986 11.5467 -41.5872 -52.0188 1.51939 -59.7036 -2.35654 -17.5115 1.10189 -13.325 18.1089 -23.3681 -3.31086 -10.1864 -21.7456 -0.250596 
61.4362 91.0218 -77.4861 96.3066 -63.4869 94.8072 173.338 6.1571 74.8382 -24.2422 -63.411 -8.37043 71.3612 5.57514 3.22664 28.7808 4.85829e-006 2.84539e-006 178.273 30.3749 80.6247 -4.93428 28.456 1.92282 -1.72684 1.94274 6.65015 28.7808 1.35224e-005 2.31008e-005 -0.632541 6.05252 -90.2095 14.7489 -0.51094 -3.68097 3.07295 -0.672324 -3.65499 -19.421 0.618035 -3.66426 0.591626 0.618025 -3.66427 103.012 -42.4723 -80.5608 -2.99865 26.255 27.8288 -3.85797 -0.97586 -35.9754 33.6307 3.92407 7.69479 -75.0885 21.0259 122.333 12.1655 -42.0518 -51.8972 1.51442 -60.5131 -2.34378 -17.3457 1.13654 -13.6768 18.8441 -22.9313 -2.70101 -9.93533 -21.4616 -0.0917243 
61.3562 91.0534 -77.6071 96.3419 -63.3025 94.861 173.352 6.23407 74.8729 -24.3806 -63.7915 -8.52773 71.1572 5.61136 3.25316 28.7808 4.85829e-006 2.84539e-006 178.283 30.3307 80.6587 -4.93783 28.5576 1.92397 -1.84562 1.84573 6.48455 28.7808 1.35224e-005 2.31008e-005 -0.636737 6.05232 -90.2183 14.7485 -0.5264 -3.69064 3.07248 -0.688196 -3.66398 -19.4212 0.606224 -3.67815 0.591463 0.606221 -3.67814 103.306 -42.2263 -80.0508 -3.11862 26.373 27.4028 -3.92137 -1.07411 -35.9098 32.8065 4.01235 8.30989 -75.245 21.5716 122.286 12.7507 -42.228 -51.213 1.51346 -60.7449 -2.34009 -16.8789 1.09913 -13.6826 19.8833 -22.3679 -1.54802 -10.2647 -21.1906 -0.29879 
61.2941 91.0799 -77.6824 96.5011 -63.2714 94.9634 173.34 6.17379 74.8599 -24.2268 -63.4678 -8.3946 71.0509 5.61775 3.25697 28.7808 4.85829e-006 2.84539e-006 178.3 30.2628 80.7318 -4.93666 28.5546 1.92171 -1.9146 1.76727 6.34556 28.7808 1.35224e-005 2.31008e-005 -0.64257 6.06248 -90.2111 14.7278 -0.538944 -3.66685 3.05188 -0.699681 -3.6396 -19.4423 0.587088 -3.65946 0.570352 0.587084 -3.65947 103.345 -42.2607 -79.9846 -3.04981 26.437 26.7904 -4.00658 -1.21034 -35.7303 31.7597 4.0444 8.8581 -75.1374 21.4355 122.988 13.1443 -42.8313 -51.9609 1.50529 -62.4455 -2.31255 -16.5248 1.1743 -14.5324 20.643 -21.87 -0.68989 -10.5162 -20.9375 -0.285532 
61.2645 91.094 -77.7127 96.6877 -63.3224 95.0532 173.256 6.06323 74.7766 -24.0508 -63.4717 -8.39616 71.0246 5.66292 3.27616 28.7808 4.85829e-006 2.84539e-006 178.304 30.1687 80.7807 -4.92657 28.4137 1.90924 -1.81991 1.74659 6.29239 28.7808 1.35224e-005 2.31008e-005 -0.631776 6.06485 -90.2288 14.7232 -0.540524 -3.65909 3.04729 -0.70095 -3.63182 -19.4471 0.583388 -3.65251 0.56561 0.583381 -3.65254 103.229 -42.1068 -80.1804 -2.84673 26.4672 26.6745 -5.14184 -2.91291 -36.0607 31.6675 3.89616 8.40728 -75.1931 21.5214 122.631 13.7638 -43.1656 -51.5759 1.50189 -63.563 -2.29391 -16.1552 1.22774 -15.247 21.465 -21.2178 1.16612 -11.4626 -20.7921 -1.1843 
61.2462 91.0783 -77.7274 96.6713 -63.5704 94.99 173.218 6.06978 74.7214 -23.9685 -63.5707 -8.43678 71.1164 5.52979 3.20539 28.7808 4.85829e-006 2.84539e-006 178.348 30.2301 80.9355 -4.91536 28.2558 1.89536 -1.67387 1.83501 6.43651 28.7808 1.35224e-005 2.31008e-005 -0.631508 6.05259 -90.2386 14.7477 -0.54591 -3.64942 3.07186 -0.705952 -3.62191 -19.4227 0.575414 -3.64487 0.589988 0.575395 -3.64489 102.998 -42.0956 -80.5782 -2.67106 26.6213 26.2789 -6.03841 -4.18726 -36.6018 31.7996 4.37832 9.99347 -75.0559 21.1675 123.154 14.0565 -43.7595 -52.3492 1.50131 -63.9458 -2.28736 -16.3141 1.36158 -16.2047 22.0619 -20.6038 2.04428 -12.0344 -20.4873 -0.956928 
61.2195 91.049 -77.729 96.3909 -63.783 94.6465 173.222 6.30605 74.6438 -24.1004 -63.6422 -8.46656 71.1264 5.44586 3.16666 28.7808 4.85829e-006 2.84539e-006 178.399 30.4337 81.0269 -4.93272 28.4976 1.91695 -1.70316 1.67689 6.13869 28.7808 1.35224e-005 2.31008e-005 -0.643549 6.04254 -90.212 14.7681 -0.539118 -3.61943 3.09228 -0.697795 -3.59221 -19.4031 0.572077 -3.61448 0.609596 0.572066 -3.6145 102.819 -42.3687 -80.8921 -2.39665 26.7137 25.8103 -6.24876 -4.44344 -36.9492 30.8153 4.53769 11.0349 -74.9261 20.9353 123.904 14.3319 -44.3522 -53.2277 1.50093 -64.2659 -2.28185 -16.4761 1.452 -16.7913 23.0392 -20.083 2.80276 -12.434 -20.2517 -0.637149 
61.1991 91.0063 -77.7353 96.2986 -63.8481 94.4952 173.219 6.49453 74.551 -24.3569 -64.0414 -8.6324 71.0717 5.92469 3.40876 28.7808 4.85829e-006 2.84539e-006 178.414 30.4847 81.0443 -4.94297 28.6383 1.9297 -1.51486 1.70746 6.16394 28.7808 1.35224e-005 2.31008e-005 -0.632817 6.04207 -90.2153 14.7699 -0.51519 -3.64621 3.09402 -0.675066 -3.62006 -19.4006 0.603698 -3.63264 0.61202 0.603695 -3.63265 102.74 -42.131 -81.0243 -1.92236 26.6734 25.5949 -6.23748 -4.37433 -37.2869 30.0921 4.56073 11.4826 -74.9066 20.8413 123.857 14.7867 -44.6522 -53.0373 1.49993 -65.3346 -2.26319 -16.8078 1.57317 -17.4392 23.6607 -19.515 3.50068 -11.8533 -19.9975 0.145686 
61.2202 90.9507 -77.7272 96.6032 -63.9301 94.68 173.137 6.42934 74.402 -24.4156 -64.2225 -8.70831 71.1864 6.14748 3.51453 28.7808 4.85829e-006 2.84539e-006 178.395 30.322 81.0165 -4.9438 28.6486 1.93078 -1.30581 1.81787 6.34119 28.7808 1.35224e-005 2.31008e-005 -0.606768 6.06988 -90.2323 14.7156 -0.483567 -3.6723 3.03965 -0.644594 -3.64749 -19.4545 0.641646 -3.64804 0.558111 0.641636 -3.64803 102.63 -42.0803 -81.2129 -1.61195 26.5365 25.4993 -5.71474 -3.64324 -37.0864 29.3146 4.04889 10.0971 -74.7091 20.1834 124.123 15.297 -45.2367 -53.397 1.50012 -66.0593 -2.25014 -16.7866 1.60037 -17.7142 24.5746 -18.7603 4.86822 -11.9456 -19.723 -0.0691789 
61.2807 90.8915 -77.6822 97.0054 -64.0942 94.9812 173.057 6.29986 74.2523 -24.4417 -64.3372 -8.75428 71.348 7.11818 3.98297 28.7808 4.85829e-006 2.84539e-006 178.385 30.1685 81.0163 -4.93541 28.5292 1.9206 -1.03554 1.91031 6.46985 28.7808 1.35224e-005 2.31008e-005 -0.575392 6.09273 -90.2558 14.6715 -0.445879 -3.71572 2.99538 -0.609155 -3.69259 -19.4979 0.691402 -3.67786 0.51476 0.691378 -3.67788 102.52 -41.853 -81.4012 -1.1971 26.4776 25.6827 -5.19049 -2.82867 -37.6 28.4017 3.96526 10.2689 -74.7671 20.2801 123.828 15.4847 -45.2955 -53.1953 1.49983 -66.9907 -2.23298 -15.7733 1.59291 -18.6362 25.0887 -18.0727 5.91697 -11.7522 -19.4563 0.220183 
61.363 90.8314 -77.6471 97.1142 -64.2546 95.009 172.99 6.33867 74.0846 -24.597 -64.7296 -8.92599 71.4124 7.59206 4.21378 28.7808 4.85829e-006 2.84539e-006 178.376 30.1852 80.9928 -4.93465 28.5175 1.91974 -0.928338 1.92176 6.47491 28.7808 1.35224e-005 2.31008e-005 -0.567139 6.09853 -90.2863 14.6599 -0.444111 -3.7662 2.98365 -0.609318 -3.74283 -19.5086 0.707208 -3.72675 0.504048 0.707223 -3.72676 102.395 -41.5791 -81.6177 -0.829985 26.3444 25.8578 -4.99946 -2.54264 -37.7524 27.7381 3.63936 9.37049 -74.595 19.7605 124.039 15.7325 -45.7402 -53.7321 1.49808 -67.3236 -2.22663 -15.5672 1.64165 -19.2602 25.717 -17.1327 7.14671 -11.9207 -19.0292 0.272792 
